<svg width="512" height="512" viewBox="0 0 512 512" fill="none" xmlns="http://www.w3.org/2000/svg">
<path d="M154.623 373.804C145.271 373.804 137.005 371.967 129.825 368.293C122.811 364.619 117.467 359.443 113.794 352.763C110.12 346.25 108.533 338.402 109.034 329.217L111.539 291.143C112.04 284.297 110.621 279.12 107.281 275.613C104.108 272.106 98.6809 270.353 90.9993 270.353H61.1914V241.547H90.9993C98.6809 241.547 104.108 239.794 107.281 236.287C110.621 232.78 112.04 227.687 111.539 221.007L109.034 181.681C108.533 172.663 110.12 164.898 113.794 158.386C117.467 151.873 122.811 146.863 129.825 143.356C137.005 139.85 145.271 138.096 154.623 138.096H171.906V166.902H159.132C153.12 166.902 148.361 168.322 144.854 171.16C141.514 173.999 140.011 178.508 140.345 184.687L142.85 223.763C143.518 233.615 140.596 241.547 134.083 247.559C127.57 253.57 118.469 256.576 106.78 256.576V254.823C118.302 254.823 127.32 257.912 133.832 264.091C140.512 270.103 143.518 278.118 142.85 288.138L140.345 327.214C140.178 332.724 141.765 337.066 145.104 340.239C148.611 343.245 153.287 344.748 159.132 344.748H171.906V373.804H154.623Z" fill="#FF00A1"/>
<path d="M203.233 344.785V319.665L267.429 266.419L203.233 213.172V188.052H307.364V212.743H251.756L236.082 211.884L288.899 253.537V278.871L235.223 320.953L250.897 320.094H307.364V344.785H203.233Z" fill="#C4FF7B"/>
<path d="M340.305 373.804V344.748H353.08C358.924 344.748 363.6 343.245 367.107 340.239C370.614 337.066 372.2 332.724 371.866 327.214L369.361 288.138C368.693 278.118 371.616 270.103 378.128 264.091C384.808 257.912 393.909 254.823 405.431 254.823V256.576C393.909 256.576 384.808 253.57 378.128 247.559C371.616 241.547 368.693 233.615 369.361 223.763L371.866 184.687C372.2 178.508 370.614 173.999 367.107 171.16C363.767 168.322 359.091 166.902 353.08 166.902H340.305V138.096H357.588C366.94 138.096 375.122 139.85 382.136 143.356C389.317 146.863 394.744 151.873 398.418 158.386C402.091 164.898 403.678 172.663 403.177 181.681L400.672 221.007C400.171 227.687 401.59 232.78 404.93 236.287C408.27 239.794 413.697 241.547 421.212 241.547H451.02V270.353H421.212C413.697 270.353 408.27 272.106 404.93 275.613C401.59 279.12 400.171 284.297 400.672 291.143L403.177 329.217C403.678 338.402 402.091 346.25 398.418 352.763C394.744 359.443 389.317 364.619 382.136 368.293C375.122 371.967 366.94 373.804 357.588 373.804H340.305Z" fill="#FF00A1"/>
</svg>
