<svg width="512" height="512" viewBox="0 0 512 512" fill="none" xmlns="http://www.w3.org/2000/svg">
<g clip-path="url(#clip0_25_6384)">
<path d="M456 0H56C25.0721 0 0 25.0721 0 56V456C0 486.928 25.0721 512 56 512H456C486.928 512 512 486.928 512 456V56C512 25.0721 486.928 0 456 0Z" fill="#07080D"/>
<path opacity="0.12" d="M60 61.5C60.8284 61.5 61.5 60.8284 61.5 60C61.5 59.1716 60.8284 58.5 60 58.5C59.1716 58.5 58.5 59.1716 58.5 60C58.5 60.8284 59.1716 61.5 60 61.5Z" fill="#BC1F50"/>
<path opacity="0.1" d="M452.001 61.2008C452.664 61.2008 453.201 60.6635 453.201 60.0008C453.201 59.338 452.664 58.8008 452.001 58.8008C451.338 58.8008 450.801 59.338 450.801 60.0008C450.801 60.6635 451.338 61.2008 452.001 61.2008Z" fill="#D06AFF"/>
<path opacity="0.1" d="M59.9992 453.299C60.7172 453.299 61.2992 452.717 61.2992 451.999C61.2992 451.281 60.7172 450.699 59.9992 450.699C59.2812 450.699 58.6992 451.281 58.6992 451.999C58.6992 452.717 59.2812 453.299 59.9992 453.299Z" fill="#448CAA"/>
<path opacity="0.08" d="M452 453.5C452.828 453.5 453.5 452.828 453.5 452C453.5 451.172 452.828 450.5 452 450.5C451.172 450.5 450.5 451.172 450.5 452C450.5 452.828 451.172 453.5 452 453.5Z" fill="#C4FF7B"/>
<g opacity="0.06" filter="url(#filter0_f_25_6384)">
<path d="M256 340C322.274 340 376 286.274 376 220C376 153.726 322.274 100 256 100C189.726 100 136 153.726 136 220C136 286.274 189.726 340 256 340Z" stroke="#FF00A1" stroke-width="0.5"/>
</g>
<path d="M154.623 373.804C145.271 373.804 137.005 371.967 129.825 368.293C122.811 364.619 117.467 359.443 113.794 352.763C110.12 346.25 108.533 338.402 109.034 329.217L111.539 291.143C112.04 284.297 110.621 279.12 107.281 275.613C104.108 272.106 98.6809 270.353 90.9993 270.353H61.1914V241.547H90.9993C98.6809 241.547 104.108 239.794 107.281 236.287C110.621 232.78 112.04 227.687 111.539 221.007L109.034 181.681C108.533 172.663 110.12 164.898 113.794 158.386C117.467 151.873 122.811 146.863 129.825 143.356C137.005 139.85 145.271 138.096 154.623 138.096H171.906V166.902H159.132C153.12 166.902 148.361 168.322 144.854 171.16C141.514 173.999 140.011 178.508 140.345 184.687L142.85 223.763C143.518 233.615 140.596 241.547 134.083 247.559C127.57 253.57 118.469 256.576 106.78 256.576V254.823C118.302 254.823 127.32 257.912 133.832 264.091C140.512 270.103 143.518 278.118 142.85 288.138L140.345 327.214C140.178 332.724 141.765 337.066 145.104 340.239C148.611 343.245 153.287 344.748 159.132 344.748H171.906V373.804H154.623Z" fill="#FF00A1"/>
<path d="M203.233 344.785V319.665L267.429 266.419L203.233 213.172V188.052H307.364V212.743H251.756L236.082 211.884L288.899 253.537V278.871L235.223 320.953L250.897 320.094H307.364V344.785H203.233Z" fill="#C4FF7B"/>
<path d="M340.305 373.804V344.748H353.08C358.924 344.748 363.6 343.245 367.107 340.239C370.614 337.066 372.2 332.724 371.866 327.214L369.361 288.138C368.693 278.118 371.616 270.103 378.128 264.091C384.808 257.912 393.909 254.823 405.431 254.823V256.576C393.909 256.576 384.808 253.57 378.128 247.559C371.616 241.547 368.693 233.615 369.361 223.763L371.866 184.687C372.2 178.508 370.614 173.999 367.107 171.16C363.767 168.322 359.091 166.902 353.08 166.902H340.305V138.096H357.588C366.94 138.096 375.122 139.85 382.136 143.356C389.317 146.863 394.744 151.873 398.418 158.386C402.091 164.898 403.678 172.663 403.177 181.681L400.672 221.007C400.171 227.687 401.59 232.78 404.93 236.287C408.27 239.794 413.697 241.547 421.212 241.547H451.02V270.353H421.212C413.697 270.353 408.27 272.106 404.93 275.613C401.59 279.12 400.171 284.297 400.672 291.143L403.177 329.217C403.678 338.402 402.091 346.25 398.418 352.763C394.744 359.443 389.317 364.619 382.136 368.293C375.122 371.967 366.94 373.804 357.588 373.804H340.305Z" fill="#FF00A1"/>
</g>
<defs>
<filter id="filter0_f_25_6384" x="111.75" y="75.75" width="288.5" height="288.5" filterUnits="userSpaceOnUse" color-interpolation-filters="sRGB">
<feFlood flood-opacity="0" result="BackgroundImageFix"/>
<feBlend mode="normal" in="SourceGraphic" in2="BackgroundImageFix" result="shape"/>
<feGaussianBlur stdDeviation="12" result="effect1_foregroundBlur_25_6384"/>
</filter>
<clipPath id="clip0_25_6384">
<rect width="512" height="512" fill="white"/>
</clipPath>
</defs>
</svg>
